<mxfile host="app.diagrams.net" agent="Mozilla/5.0 (Windows NT 10.0; Win64; x64) AppleWebKit/537.36 (KHTML, like Gecko) Chrome/138.0.0.0 Safari/537.36 OPR/122.0.0.0 (Edition std-2)" version="28.2.7">
  <diagram name="PÃ¡gina-1" id="uX9shmX5wNB9xqoOuZO5">
    <mxGraphModel dx="997" dy="594" grid="1" gridSize="10" guides="1" tooltips="1" connect="1" arrows="1" fold="1" page="1" pageScale="1" pageWidth="827" pageHeight="1169" math="0" shadow="0">
      <root>
        <mxCell id="0" />
        <mxCell id="1" parent="0" />
        <mxCell id="BwaXgzr75BCKxHEBZm9R-1" style="edgeStyle=none;curved=1;rounded=0;orthogonalLoop=1;jettySize=auto;html=1;exitX=0.5;exitY=1;exitDx=0;exitDy=0;entryX=0.5;entryY=0;entryDx=0;entryDy=0;fontSize=12;startSize=8;endSize=8;" edge="1" parent="1" source="BwaXgzr75BCKxHEBZm9R-2" target="BwaXgzr75BCKxHEBZm9R-5">
          <mxGeometry relative="1" as="geometry" />
        </mxCell>
        <mxCell id="BwaXgzr75BCKxHEBZm9R-2" value="" style="rounded=0;whiteSpace=wrap;html=1;" vertex="1" parent="1">
          <mxGeometry x="430" y="360" width="200" height="60" as="geometry" />
        </mxCell>
        <mxCell id="BwaXgzr75BCKxHEBZm9R-3" value="EXECUTE" style="text;html=1;align=center;verticalAlign=middle;whiteSpace=wrap;rounded=0;" vertex="1" parent="1">
          <mxGeometry x="500" y="375" width="60" height="30" as="geometry" />
        </mxCell>
        <mxCell id="BwaXgzr75BCKxHEBZm9R-4" style="edgeStyle=none;curved=1;rounded=0;orthogonalLoop=1;jettySize=auto;html=1;exitX=0.5;exitY=1;exitDx=0;exitDy=0;entryX=0.5;entryY=0;entryDx=0;entryDy=0;fontSize=12;startSize=8;endSize=8;" edge="1" parent="1" source="BwaXgzr75BCKxHEBZm9R-5" target="BwaXgzr75BCKxHEBZm9R-8">
          <mxGeometry relative="1" as="geometry" />
        </mxCell>
        <mxCell id="BwaXgzr75BCKxHEBZm9R-5" value="" style="rounded=0;whiteSpace=wrap;html=1;" vertex="1" parent="1">
          <mxGeometry x="430" y="450" width="200" height="60" as="geometry" />
        </mxCell>
        <mxCell id="BwaXgzr75BCKxHEBZm9R-6" value="WAIT" style="text;html=1;align=center;verticalAlign=middle;whiteSpace=wrap;rounded=0;" vertex="1" parent="1">
          <mxGeometry x="500" y="465" width="60" height="30" as="geometry" />
        </mxCell>
        <mxCell id="BwaXgzr75BCKxHEBZm9R-7" style="edgeStyle=none;curved=0;rounded=0;orthogonalLoop=1;jettySize=auto;html=1;entryX=1;entryY=0.5;entryDx=0;entryDy=0;fontSize=12;startSize=8;endSize=8;exitX=1;exitY=0.5;exitDx=0;exitDy=0;" edge="1" parent="1" source="BwaXgzr75BCKxHEBZm9R-8" target="BwaXgzr75BCKxHEBZm9R-5">
          <mxGeometry relative="1" as="geometry">
            <mxPoint x="600" y="550" as="sourcePoint" />
            <mxPoint x="690" y="385.0000000000001" as="targetPoint" />
            <Array as="points">
              <mxPoint x="730" y="575" />
              <mxPoint x="730" y="480" />
            </Array>
          </mxGeometry>
        </mxCell>
        <mxCell id="BwaXgzr75BCKxHEBZm9R-8" value="" style="rhombus;whiteSpace=wrap;html=1;" vertex="1" parent="1">
          <mxGeometry x="480" y="550" width="100" height="50" as="geometry" />
        </mxCell>
        <mxCell id="BwaXgzr75BCKxHEBZm9R-9" style="edgeStyle=orthogonalEdgeStyle;rounded=0;orthogonalLoop=1;jettySize=auto;html=1;exitX=0.5;exitY=1;exitDx=0;exitDy=0;entryX=0.5;entryY=0;entryDx=0;entryDy=0;" edge="1" parent="1" source="BwaXgzr75BCKxHEBZm9R-10" target="BwaXgzr75BCKxHEBZm9R-24">
          <mxGeometry relative="1" as="geometry" />
        </mxCell>
        <mxCell id="BwaXgzr75BCKxHEBZm9R-10" value="" style="rounded=0;whiteSpace=wrap;html=1;" vertex="1" parent="1">
          <mxGeometry x="430" y="210" width="200" height="60" as="geometry" />
        </mxCell>
        <mxCell id="BwaXgzr75BCKxHEBZm9R-11" value="IDLE" style="text;html=1;align=center;verticalAlign=middle;whiteSpace=wrap;rounded=0;" vertex="1" parent="1">
          <mxGeometry x="500" y="225" width="60" height="30" as="geometry" />
        </mxCell>
        <mxCell id="BwaXgzr75BCKxHEBZm9R-12" value="millis-tS &amp;gt;= wT" style="text;html=1;align=center;verticalAlign=middle;whiteSpace=wrap;rounded=0;" vertex="1" parent="1">
          <mxGeometry x="500" y="560" width="60" height="30" as="geometry" />
        </mxCell>
        <mxCell id="BwaXgzr75BCKxHEBZm9R-13" value="0" style="text;html=1;align=center;verticalAlign=middle;whiteSpace=wrap;rounded=0;" vertex="1" parent="1">
          <mxGeometry x="540" y="580" width="60" height="30" as="geometry" />
        </mxCell>
        <mxCell id="BwaXgzr75BCKxHEBZm9R-14" value="1" style="text;html=1;align=center;verticalAlign=middle;whiteSpace=wrap;rounded=0;" vertex="1" parent="1">
          <mxGeometry x="450" y="570" width="60" height="30" as="geometry" />
        </mxCell>
        <mxCell id="BwaXgzr75BCKxHEBZm9R-15" style="edgeStyle=orthogonalEdgeStyle;rounded=0;orthogonalLoop=1;jettySize=auto;html=1;exitX=0;exitY=0.5;exitDx=0;exitDy=0;entryX=0.5;entryY=0;entryDx=0;entryDy=0;" edge="1" parent="1" source="BwaXgzr75BCKxHEBZm9R-17" target="BwaXgzr75BCKxHEBZm9R-10">
          <mxGeometry relative="1" as="geometry">
            <mxPoint x="447" y="207" as="targetPoint" />
            <Array as="points">
              <mxPoint x="330" y="575" />
              <mxPoint x="330" y="170" />
              <mxPoint x="530" y="170" />
            </Array>
          </mxGeometry>
        </mxCell>
        <mxCell id="BwaXgzr75BCKxHEBZm9R-16" style="edgeStyle=none;curved=0;rounded=0;orthogonalLoop=1;jettySize=auto;html=1;exitX=0.5;exitY=0;exitDx=0;exitDy=0;entryX=0;entryY=0.5;entryDx=0;entryDy=0;fontSize=12;startSize=8;endSize=8;" edge="1" parent="1" source="BwaXgzr75BCKxHEBZm9R-17" target="BwaXgzr75BCKxHEBZm9R-2">
          <mxGeometry relative="1" as="geometry">
            <Array as="points">
              <mxPoint x="400" y="390" />
            </Array>
          </mxGeometry>
        </mxCell>
        <mxCell id="BwaXgzr75BCKxHEBZm9R-17" value="" style="rhombus;whiteSpace=wrap;html=1;" vertex="1" parent="1">
          <mxGeometry x="350" y="550" width="100" height="50" as="geometry" />
        </mxCell>
        <mxCell id="BwaXgzr75BCKxHEBZm9R-18" value="working" style="text;html=1;align=center;verticalAlign=middle;whiteSpace=wrap;rounded=0;" vertex="1" parent="1">
          <mxGeometry x="370" y="560" width="60" height="30" as="geometry" />
        </mxCell>
        <mxCell id="BwaXgzr75BCKxHEBZm9R-19" value="1&lt;div&gt;&lt;br&gt;&lt;/div&gt;" style="text;html=1;align=center;verticalAlign=middle;whiteSpace=wrap;rounded=0;" vertex="1" parent="1">
          <mxGeometry x="360" y="530" width="60" height="30" as="geometry" />
        </mxCell>
        <mxCell id="BwaXgzr75BCKxHEBZm9R-20" value="0" style="text;html=1;align=center;verticalAlign=middle;whiteSpace=wrap;rounded=0;" vertex="1" parent="1">
          <mxGeometry x="320" y="570" width="60" height="30" as="geometry" />
        </mxCell>
        <mxCell id="BwaXgzr75BCKxHEBZm9R-21" style="edgeStyle=orthogonalEdgeStyle;rounded=0;orthogonalLoop=1;jettySize=auto;html=1;exitX=0;exitY=0.5;exitDx=0;exitDy=0;entryX=1;entryY=0.5;entryDx=0;entryDy=0;" edge="1" parent="1" source="BwaXgzr75BCKxHEBZm9R-8" target="BwaXgzr75BCKxHEBZm9R-17">
          <mxGeometry relative="1" as="geometry" />
        </mxCell>
        <mxCell id="BwaXgzr75BCKxHEBZm9R-22" style="edgeStyle=orthogonalEdgeStyle;rounded=0;orthogonalLoop=1;jettySize=auto;html=1;exitX=0.5;exitY=1;exitDx=0;exitDy=0;entryX=0.5;entryY=0;entryDx=0;entryDy=0;" edge="1" parent="1" source="BwaXgzr75BCKxHEBZm9R-24" target="BwaXgzr75BCKxHEBZm9R-2">
          <mxGeometry relative="1" as="geometry" />
        </mxCell>
        <mxCell id="BwaXgzr75BCKxHEBZm9R-23" style="edgeStyle=orthogonalEdgeStyle;rounded=0;orthogonalLoop=1;jettySize=auto;html=1;exitX=1;exitY=0.5;exitDx=0;exitDy=0;" edge="1" parent="1" source="BwaXgzr75BCKxHEBZm9R-24">
          <mxGeometry relative="1" as="geometry">
            <mxPoint x="530" y="170" as="targetPoint" />
            <Array as="points">
              <mxPoint x="730" y="315" />
              <mxPoint x="730" y="170" />
            </Array>
          </mxGeometry>
        </mxCell>
        <mxCell id="BwaXgzr75BCKxHEBZm9R-24" value="" style="rhombus;whiteSpace=wrap;html=1;" vertex="1" parent="1">
          <mxGeometry x="480" y="290" width="100" height="50" as="geometry" />
        </mxCell>
        <mxCell id="BwaXgzr75BCKxHEBZm9R-25" value="1" style="text;html=1;align=center;verticalAlign=middle;whiteSpace=wrap;rounded=0;" vertex="1" parent="1">
          <mxGeometry x="510" y="330" width="60" height="30" as="geometry" />
        </mxCell>
        <mxCell id="BwaXgzr75BCKxHEBZm9R-26" value="working" style="text;html=1;align=center;verticalAlign=middle;whiteSpace=wrap;rounded=0;" vertex="1" parent="1">
          <mxGeometry x="500" y="300" width="60" height="30" as="geometry" />
        </mxCell>
        <mxCell id="BwaXgzr75BCKxHEBZm9R-27" value="0" style="text;html=1;align=center;verticalAlign=middle;whiteSpace=wrap;rounded=0;" vertex="1" parent="1">
          <mxGeometry x="550" y="290" width="60" height="30" as="geometry" />
        </mxCell>
      </root>
    </mxGraphModel>
  </diagram>
</mxfile>
